#tb 0: 1001/30000
0,          0,          0,        1,     6144, 35f17db9076fa20368fddfa01543c746
0,          1,          1,        1,     6144, 61cd775dfc177262da9a91d3912e6718
0,          2,          2,        1,     6144, 8b8cf175f91425d703332b22b46c1c0e
0,          3,          3,        1,     6144, 6041afbdd81e228f8f16384d3f9e988e
0,          4,          4,        1,     6144, d30bd08897b50f518920014c7fa55df9
0,          5,          5,        1,     6144, fb67222a183876b502f93e48bb779b70
0,          6,          6,        1,     6144, 60830425ca1dcf3df4ee9c6cd75f066a
0,          7,          7,        1,     6144, 3e178df858f7fcaa2552a1c5c719b5cc
0,          8,          8,        1,     6144, 66718eb0c3981beb7c1119df8a2cd27e
0,          9,          9,        1,     6144, 7c1912448c7756f7451888050760d73d
